<svg id="visual" viewBox="0 0 2050 400" width="2050" height="400" xmlns="http://www.w3.org/2000/svg" xmlns:xlink="http://www.w3.org/1999/xlink" version="1.1"><rect x="0" y="0" width="2050" height="400" fill="#9A7A58"></rect><path d="M0 105L57 106.7C114 108.3 228 111.7 341.8 116.3C455.7 121 569.3 127 683.2 123C797 119 911 105 1025 84.8C1139 64.7 1253 38.3 1366.8 55.7C1480.7 73 1594.3 134 1708.2 159.3C1822 184.7 1936 174.3 1993 169.2L2050 164L2050 0L1993 0C1936 0 1822 0 1708.2 0C1594.3 0 1480.7 0 1366.8 0C1253 0 1139 0 1025 0C911 0 797 0 683.2 0C569.3 0 455.7 0 341.8 0C228 0 114 0 57 0L0 0Z" fill="#211E19" stroke-linecap="round" stroke-linejoin="miter"></path></svg>